<?xml version="1.0" encoding="UTF-8"?><!DOCTYPE svg PUBLIC "-//W3C//DTD SVG 1.1//EN" "http://www.w3.org/Graphics/SVG/1.1/DTD/svg11.dtd"><svg xmlns="http://www.w3.org/2000/svg" xmlns:xlink="http://www.w3.org/1999/xlink" xmlns:sketch="http://www.bohemiancoding.com/sketch/ns"><symbol id="icon-facebook" viewBox="0 0 10 19">
    <!-- Generator: Sketch 3.3.3 (12072) - http://www.bohemiancoding.com/sketch -->
    <title>facebook</title>
    <desc>Created with Sketch.</desc>
    
    <g id="Page-1" stroke-width="1" fill-rule="evenodd" sketch:type="MSPage">
        <path d="M9.76616526,0.156928571 L9.76616526,3.10335714 L8.01393311,3.10335714 C7.37405216,3.10335714 6.94250454,3.23728571 6.71929026,3.50514286 C6.49607597,3.773 6.38446883,4.17478571 6.38446883,4.7105 L6.38446883,6.819875 L9.65455811,6.819875 L9.21929026,10.1234464 L6.38446883,10.1234464 L6.38446883,18.5944286 L2.96929026,18.5944286 L2.96929026,10.1234464 L0.123308113,10.1234464 L0.123308113,6.819875 L2.96929026,6.819875 L2.96929026,4.38683929 C2.96929026,3.00291071 3.35619502,1.92962202 4.13000454,1.16697321 C4.90381407,0.404324405 5.93432002,0.023 7.2215224,0.023 C8.3152724,0.023 9.16348668,0.0676428571 9.76616526,0.156928571 L9.76616526,0.156928571 Z" id="facebook" sketch:type="MSShapeGroup"/>
    </g>
</symbol><symbol id="icon-find" viewBox="0 0 512 512">
<g id="surface1">
<path d="M 391.132812 120.867188 C 364.878906 94.617188 330.382812 81.484375 295.898438 81.484375 C 261.402344 81.484375 226.921875 94.609375 200.660156 120.867188 C 148.148438 173.382812 148.148438 258.824219 200.660156 311.335938 C 253.175781 363.851562 338.621094 363.851562 391.132812 311.335938 C 443.644531 258.824219 443.644531 173.382812 391.132812 120.867188 Z M 391.132812 120.867188 " style=" fill-rule:nonzero;fill-opacity:1;"/>
<path d="M 448.703125 63.296875 C 407.890625 22.480469 353.621094 0 295.898438 0 C 238.175781 0 183.90625 22.480469 143.089844 63.296875 C 102.273438 104.113281 79.792969 158.378906 79.792969 216.105469 C 79.792969 273.828125 102.269531 328.09375 143.089844 368.910156 C 183.90625 409.726562 238.175781 432.207031 295.898438 432.207031 C 353.621094 432.207031 407.890625 409.730469 448.703125 368.910156 C 489.519531 328.09375 512 273.828125 512 216.105469 C 512 158.382812 489.519531 104.113281 448.703125 63.296875 Z M 412.34375 332.550781 C 380.238281 364.652344 338.066406 380.707031 295.898438 380.707031 C 253.726562 380.707031 211.554688 364.652344 179.449219 332.550781 C 115.242188 268.339844 115.242188 163.867188 179.449219 99.660156 C 243.660156 35.453125 348.132812 35.449219 412.34375 99.660156 C 476.550781 163.867188 476.550781 268.339844 412.34375 332.550781 Z M 412.34375 332.550781 " style=" fill-rule:nonzero;fill-opacity:1;"/>
<path d="M 97.53125 357.53125 L 11.675781 442.945312 C 4.148438 450.476562 0 460.488281 0 471.136719 C 0 481.785156 4.148438 491.792969 11.675781 499.324219 C 19.207031 506.851562 29.214844 511 39.863281 511 C 50.511719 511 60.523438 506.851562 68.023438 499.351562 L 153.925781 413.890625 C 142.996094 406.386719 132.667969 397.832031 123.089844 388.253906 C 113.546875 378.710938 105.015625 368.421875 97.53125 357.53125 Z M 97.53125 357.53125 " style=" fill-rule:nonzero;fill-opacity:1;"/>
</g>
</symbol><symbol id="icon-key" viewBox="0 0 512 512">
<g id="surface1">
<path d="M 463.199219 48.800781 C 431.726562 17.328125 389.835938 0 345.242188 0 C 300.648438 0 258.769531 17.339844 227.296875 48.8125 C 195.824219 80.273438 178.496094 122.164062 178.496094 166.757812 C 178.496094 181.871094 180.820312 198.007812 185.589844 215.910156 L 5.320312 396.175781 C 1.882812 399.601562 0 404.171875 0 409.027344 L 0 493.820312 C 0 503.847656 8.152344 512 18.171875 512 L 101.117188 512 C 111.132812 512 119.296875 503.847656 119.296875 493.820312 L 119.296875 458.449219 L 154.667969 458.449219 C 164.695312 458.449219 172.847656 450.296875 172.847656 440.269531 L 172.847656 404.902344 L 210.058594 404.902344 C 214.917969 404.902344 219.472656 403.007812 222.921875 399.574219 L 295.921875 326.5625 C 312.296875 331.167969 328.855469 333.503906 345.242188 333.503906 C 389.828125 333.503906 431.714844 316.164062 463.1875 284.703125 C 494.660156 253.230469 511.988281 211.339844 511.988281 166.757812 C 511.988281 122.152344 494.660156 80.261719 463.199219 48.800781 Z M 345.332031 225.503906 C 311.949219 225.503906 284.792969 198.339844 284.792969 164.964844 C 284.792969 131.578125 311.949219 104.414062 345.332031 104.414062 C 378.71875 104.414062 405.875 131.578125 405.875 164.964844 C 405.875 198.339844 378.71875 225.503906 345.332031 225.503906 Z M 345.332031 225.503906 " style=" fill-rule:nonzero;fill-opacity:1;"/>
</g>
</symbol></svg>